<?xml version="1.0" encoding="UTF-8"?>
<svg id="Layer_1" data-name="Layer 1" xmlns="http://www.w3.org/2000/svg" viewBox="0 0 754.31 737.58">
  <defs>
    <style>
      .cls-1 {
        fill: none;
        stroke: #000;
        stroke-dasharray: 0 0 0 0 0 0 12 20 12 20 12 20;
        stroke-linecap: round;
        stroke-linejoin: round;
        stroke-width: 12px;
      }

      .cls-2 {
        stroke-width: 0px;
      }
    </style>
  </defs>
  <path class="cls-2" d="m520.81,463.98v174.3H201.32c-19.54,0-36.92-12.42-43.25-30.91L16.13,192.7c-2.77-8.11-.09-17.09,6.69-22.35L183.08,46.1c5.73-4.44,14.11-1.97,16.51,4.86l137.02,389.46c4.96,14.11,18.29,23.55,33.25,23.55h150.95Z"/>
  <rect class="cls-2" x="540.9" y="463.97" width="32.01" height="174.3"/>
  <path class="cls-2" d="m27.45,139.61L1.57,70.91c-4.89-12.97,2.01-27.4,15.18-31.74L132.83.92c8.82-2.91,18.42,1.3,22.25,9.77l11.79,26.02L27.45,139.61Z"/>
  <line class="cls-1" x1="600.21" y1="468.56" x2="706.36" y2="362.41"/>
  <line class="cls-1" x1="599.8" y1="547" x2="745.65" y2="547"/>
  <line class="cls-1" x1="600.21" y1="509.03" x2="745.65" y2="438.17"/>
  <line class="cls-1" x1="602.88" y1="625.43" x2="709.02" y2="731.58"/>
  <line class="cls-1" x1="602.88" y1="584.97" x2="748.31" y2="655.83"/>
</svg>