<?xml version="1.0" encoding="UTF-8"?>
<svg id="Layer_1" data-name="Layer 1" xmlns="http://www.w3.org/2000/svg" viewBox="0 0 756.95 720">
  <defs>
    <style>
      .cls-1 {
        stroke: #fff;
        stroke-miterlimit: 10;
      }
    </style>
  </defs>
  <path class="cls-1" d="m470.75,42.63c-27.12,14.69-53.47,33.1-75.74,58.87-68.25,78.95-87.39,211.23-138.95,311.16-57.02,110.48-156.5,177.19-255.16,171.08-2.92,16.46,11,32.85,24.95,46.46,87.8,85.69,205.03,111.95,308.18,69.03,38.97-16.22,75.93-41.79,108.13-75.96,70.75-75.09,115.82-189.22,136.63-308.47,5.78-33.14,9.87-66.96,18.17-99.08,24.37-94.27,86.9-168.07,158.55-187.14-91.69-43.36-194.54-34.8-284.75,14.06Zm-117.44,243.28c-.06-12.99,14.23-64.1,51.25-122.86,31.52-50.03,76.1-77.36,108.65-90.7l-159.9,213.56Z"/>
</svg>