<?xml version="1.0" encoding="UTF-8"?>
<svg id="Layer_1" data-name="Layer 1" xmlns="http://www.w3.org/2000/svg" viewBox="0 0 930.38 872.46">
  <defs>
    <style>
      .cls-1, .cls-2 {
        stroke: #fff;
        stroke-miterlimit: 10;
      }

      .cls-2 {
        fill: none;
      }

      .cls-3 {
        stroke-width: 0px;
      }
    </style>
  </defs>
  <path class="cls-1" d="m.46,872.05c4.27-10.05,9.83-19.64,16.52-28.56,6.4-8.53,13.88-16.57,23.31-22.73,28.89-18.88,70.57-17.35,104.68-29.13,37.71-13.02,65.08-43.54,70.2-78.28,5.22,0,9.23,5.87,12.4,11.57,19.9,35.89,19.61,78.35-.78,111.62-7.7,12.57-18.11,23.86-30.8,32.96-1.22.87-2.46,1.73-3.72,2.56"/>
  <line class="cls-2" x1="146.39" y1="713.34" x2="338.19" y2="713.34"/>
  <path class="cls-3" d="m727.96,0L224.86,573.88c-11,12.55-10.38,31.49,1.42,43.29l16.82,16.82-26.07,26.07,53.28,53.28,26.07-26.07,16.79,16.79c11.81,11.81,30.74,12.43,43.3,1.43L930.38,202.42,727.96,0Zm-212.21,522.09l-107.48-107.48,165.42-182.36,127.42,124.42-185.36,165.42Z"/>
</svg>