<?xml version="1.0" encoding="UTF-8"?>
<svg id="Layer_1" data-name="Layer 1" xmlns="http://www.w3.org/2000/svg" viewBox="0 0 435.64 920.52">
  <defs>
    <style>
      .cls-1 {
        fill: none;
        stroke: #000;
        stroke-dasharray: 0 0 0 0 0 0 12 20 12 20 12 20;
        stroke-linecap: round;
        stroke-linejoin: round;
        stroke-width: 12px;
      }

      .cls-2 {
        stroke-width: 0px;
      }
    </style>
  </defs>
  <path class="cls-2" d="m300.69,311.24l-87.38-205.69c-1.03-2.42-3.4-3.98-6.02-3.98h-8.29V34.78c0-11.72-9.5-21.22-21.22-21.22h-47.56c-11.72,0-21.22,9.5-21.22,21.22v66.78h-8.89c-2.63,0-5,1.57-6.03,4L7.23,311.32c-4.77,11.3-7.23,23.44-7.23,35.7v530.87c0,23.54,19.09,42.63,42.63,42.63h222.74c23.54,0,42.63-19.09,42.63-42.63V347.14c0-12.33-2.49-24.54-7.31-35.89ZM178.57,39c5.78,0,10.46,8.46,10.46,18.89s-4.68,18.89-10.46,18.89-10.46-8.46-10.46-18.89,4.68-18.89,10.46-18.89Zm88.43,790.01H41v-488h226v488Z"/>
  <line class="cls-1" x1="223.41" y1="57.89" x2="429.64" y2="57.89"/>
  <line class="cls-1" x1="221.81" y1="39.78" x2="427.47" y2="6"/>
  <line class="cls-1" x1="223.7" y1="75.99" x2="429.35" y2="109.77"/>
</svg>