<?xml version="1.0" encoding="UTF-8"?>
<svg id="Layer_1" data-name="Layer 1" xmlns="http://www.w3.org/2000/svg" viewBox="0 0 924.09 928.16">
  <defs>
    <style>
      .cls-1 {
        stroke-width: 0px;
      }
    </style>
  </defs>
  <g>
    <path class="cls-1" d="m0,561.98l261.58,261.58c16.1-16.1,35.11-27.53,55.35-34.26.75-.25,1.5-.47,2.25-.71L49.49,512.49,0,561.98Z"/>
    <rect class="cls-1" x="682.17" y="-49.68" width="71.46" height="511.75" transform="translate(64.47 568.02) rotate(-45)"/>
    <path class="cls-1" d="m61.74,500.49l269.68,276.11c48.8-15.37,104.28-3.72,142.97,34.96l389.17-389.17L501.7,60.52,61.74,500.49Zm478.19-309.24l192.92,192.92c20.17,20.17,20.17,52.88,0,73.06l-273.37,273.37c-20.17,20.17-52.88,20.17-73.06,0l-192.92-192.92c-20.17-20.17-20.17-52.88,0-73.06L466.87,191.24c20.17-20.17,52.88-20.17,73.06,0Z"/>
    <path class="cls-1" d="m202.72,527.49l193.88,193.88c15.99,15.99,41.91,15.99,57.9,0l270.04-270.04c15.99-15.99,15.99-41.91,0-57.9l-193.88-193.88c-15.99-15.99-41.91-15.99-57.9,0L202.72,469.6c-15.99,15.99-15.99,41.91,0,57.9Z"/>
  </g>
  <circle class="cls-1" cx="329.17" cy="831.71" r="18"/>
  <circle class="cls-1" cx="367.17" cy="860.86" r="18"/>
  <circle class="cls-1" cx="376.17" cy="811.56" r="18"/>
  <circle class="cls-1" cx="319.17" cy="878.86" r="18"/>
  <circle class="cls-1" cx="358.17" cy="910.16" r="18"/>
  <circle class="cls-1" cx="412.17" cy="878.86" r="18"/>
  <circle class="cls-1" cx="423.17" cy="829.56" r="18"/>
</svg>