<?xml version="1.0" encoding="UTF-8"?>
<svg id="Layer_1" data-name="Layer 1" xmlns="http://www.w3.org/2000/svg" viewBox="0 0 899.68 617.85">
  <defs>
    <style>
      .cls-1 {
        stroke-width: 0px;
      }

      .cls-2 {
        fill: #fff;
        stroke: #000;
        stroke-linecap: round;
        stroke-linejoin: round;
        stroke-width: 12px;
      }
    </style>
  </defs>
  <path class="cls-1" d="m808.76,0H90.91C40.7,0,0,40.7,0,90.91v436.02C0,577.15,40.7,617.85,90.91,617.85h717.85c50.21,0,90.91-40.7,90.91-90.91V90.91C899.68,40.7,858.98,0,808.76,0Zm-362.42,565.16c0,4.95-4.01,8.96-8.96,8.96h-116.07c-4.95,0-8.96-4.01-8.96-8.96v-18.07c0-4.95,4.01-8.96,8.96-8.96h116.07c4.95,0,8.96,4.01,8.96,8.96v18.07Zm141,0c0,4.95-4.01,8.96-8.96,8.96h-116.07c-4.95,0-8.96-4.01-8.96-8.96v-18.07c0-4.95,4.01-8.96,8.96-8.96h116.07c4.95,0,8.96,4.01,8.96,8.96v18.07Zm214.78-97.4c0,18.32-14.85,33.17-33.17,33.17H130.73c-18.32,0-33.17-14.85-33.17-33.17V150.1c0-18.32,14.85-33.17,33.17-33.17h638.22c18.32,0,33.17,14.85,33.17,33.17v317.66Z"/>
  <g>
    <line class="cls-2" x1="140.18" y1="376.61" x2="225.72" y2="376.61"/>
    <line class="cls-2" x1="234.6" y1="336.34" x2="225.64" y2="377.01"/>
    <line class="cls-2" x1="245.24" y1="376.66" x2="234.6" y2="336.34"/>
    <line class="cls-2" x1="260.58" y1="376.66" x2="245.24" y2="376.66"/>
    <line class="cls-2" x1="264.11" y1="388.46" x2="260.58" y2="375.78"/>
    <line class="cls-2" x1="274.26" y1="162.95" x2="264.15" y2="388.46"/>
    <line class="cls-2" x1="274.26" y1="163.83" x2="283.48" y2="454.02"/>
    <line class="cls-2" x1="290.43" y1="377.01" x2="283.48" y2="454.9"/>
    <line class="cls-2" x1="290.43" y1="377.01" x2="317.79" y2="377.01"/>
    <path class="cls-2" d="m317.79,377.01s.04-7.04,10.69-7.04c9.31,0,9.25,7.04,9.25,7.04"/>
  </g>
  <g>
    <line class="cls-2" x1="338.41" y1="376.61" x2="423.95" y2="376.61"/>
    <line class="cls-2" x1="432.83" y1="336.34" x2="423.87" y2="377.01"/>
    <line class="cls-2" x1="443.47" y1="376.66" x2="432.83" y2="336.34"/>
    <line class="cls-2" x1="458.81" y1="376.66" x2="443.47" y2="376.66"/>
    <line class="cls-2" x1="462.34" y1="388.46" x2="458.81" y2="375.78"/>
    <line class="cls-2" x1="472.49" y1="162.95" x2="462.38" y2="388.46"/>
    <line class="cls-2" x1="472.49" y1="163.83" x2="481.71" y2="454.02"/>
    <line class="cls-2" x1="488.66" y1="377.01" x2="481.71" y2="454.9"/>
    <line class="cls-2" x1="488.66" y1="377.01" x2="516.01" y2="377.01"/>
    <path class="cls-2" d="m516.01,377.01s.04-7.04,10.69-7.04c9.31,0,9.25,7.04,9.25,7.04"/>
  </g>
  <g>
    <line class="cls-2" x1="536.64" y1="376.61" x2="622.18" y2="376.61"/>
    <line class="cls-2" x1="631.06" y1="336.34" x2="622.1" y2="377.01"/>
    <line class="cls-2" x1="641.69" y1="376.66" x2="631.06" y2="336.34"/>
    <line class="cls-2" x1="657.03" y1="376.66" x2="641.69" y2="376.66"/>
    <line class="cls-2" x1="660.57" y1="388.46" x2="657.03" y2="375.78"/>
    <line class="cls-2" x1="670.72" y1="162.95" x2="660.61" y2="388.46"/>
    <line class="cls-2" x1="670.72" y1="163.83" x2="679.94" y2="454.02"/>
    <line class="cls-2" x1="686.89" y1="377.01" x2="679.94" y2="454.9"/>
    <line class="cls-2" x1="686.89" y1="377.01" x2="714.24" y2="377.01"/>
    <path class="cls-2" d="m714.24,377.01s.04-7.04,10.69-7.04c9.31,0,9.25,7.04,9.25,7.04"/>
  </g>
</svg>