<?xml version="1.0" encoding="UTF-8"?>
<svg id="Layer_2" data-name="Layer 2" xmlns="http://www.w3.org/2000/svg" viewBox="0 0 972.26 972.26">
  <defs>
    <style>
      .cls-1 {
        fill: #fff;
        opacity: .7;
      }

      .cls-1, .cls-2, .cls-3, .cls-4 {
        stroke-width: 0px;
      }

      .cls-3 {
        fill: #009aab;
      }

      .cls-4 {
        fill: #ffa000;
      }
    </style>
  </defs>
  <path class="cls-4" d="m369.19,814.36c9.5,55.32,57.7,97.41,115.73,97.41s106.23-42.09,115.73-97.41"/>
  <g>
    <rect class="cls-3" x="173.54" y="689.96" width="625.18" height="110.17"/>
    <rect class="cls-1" x="264.06" y="703.2" width="30.75" height="83.7" rx="14.1" ry="14.1" transform="translate(558.87 1490.09) rotate(180)"/>
  </g>
  <g>
    <g>
      <path class="cls-4" d="m766.94,599.51c15.89,15.13,31.78,30.25,31.78,43.77l-31.78-43.77Z"/>
      <path class="cls-4" d="m173.54,643.28c0-13.51,15.89-28.64,31.77-43.75"/>
      <path class="cls-4" d="m173.54,643.28v32.45h625.18v-32.45l-31.78-43.77-.02-.02c-15.89-15.12-31.77-30.23-31.77-43.75v-152.6c0-12.42-4.05-24.19-8.22-24.19l-240.8,1.71-240.8-1.71c-4.18,0-8.22,11.77-8.22,24.19v152.6c0,13.53-15.89,28.65-31.78,43.77l-.02.02"/>
    </g>
    <rect class="cls-1" x="264.06" y="394.6" width="30.75" height="264.76" rx="14.1" ry="14.1"/>
  </g>
  <polygon class="cls-2" points="595.45 498.25 595.45 564.87 518.22 564.87 518.22 640.88 451.6 640.88 451.6 564.87 376.81 564.87 376.81 498.25 451.6 498.25 451.6 422.24 518.22 422.24 518.22 498.25 595.45 498.25"/>
  <g>
    <polygon class="cls-3" points="717.16 364.73 601.92 286.34 601.92 225.6 459.64 225.6 367.9 225.6 367.9 287.94 367.98 287.94 255.11 364.73 717.16 364.73"/>
    <path class="cls-1" d="m424.14,247.91v49.11c0,.26,0,.53-.02.79-.29,4.55-2.59,8.93-6.64,11.72l-1.7,1.17-43.49,29.94c-6.99,4.82-16.57,3.05-21.39-3.95-1.83-2.66-2.71-5.7-2.71-8.7,0-4.89,2.32-9.69,6.65-12.67l38.54-26.53v-40.88c0-8.49,6.88-15.37,15.37-15.37,4.25,0,8.1,1.73,10.87,4.5,2.78,2.78,4.5,6.63,4.5,10.87Z"/>
  </g>
  <g>
    <rect class="cls-4" x="345.27" y="128.53" width="279.28" height="82.84" rx="32.69" ry="32.69"/>
    <g>
      <rect class="cls-2" x="368.33" y="136.76" width="23.91" height="64.05" rx="10.97" ry="10.97"/>
      <rect class="cls-2" x="410.18" y="136.76" width="23.91" height="64.05" rx="10.97" ry="10.97"/>
      <rect class="cls-2" x="452.03" y="136.76" width="23.91" height="64.05" rx="10.97" ry="10.97"/>
      <rect class="cls-2" x="493.88" y="136.76" width="23.91" height="64.05" rx="10.97" ry="10.97"/>
      <rect class="cls-2" x="535.72" y="136.76" width="23.91" height="64.05" rx="10.97" ry="10.97"/>
      <rect class="cls-2" x="577.57" y="136.76" width="23.91" height="64.05" rx="10.97" ry="10.97"/>
    </g>
  </g>
  <path class="cls-3" d="m367.91,114.31c0-29.71,52.37-53.81,117-53.81s117,24.09,117,53.81"/>
</svg>