<?xml version="1.0" encoding="UTF-8"?>
<svg id="Layer_1" data-name="Layer 1" xmlns="http://www.w3.org/2000/svg" viewBox="0 0 597.92 915.48">
  <defs>
    <style>
      .cls-1 {
        stroke-width: 0px;
      }
    </style>
  </defs>
  <path class="cls-1" d="m581,561.7l-124.1-277.99v-106.69c0-28.31-22.95-51.25-51.25-51.25h-27.72V58.09h133.04l16.92-25.73h-150.01c.03-7.19-4.82-13.49-11.77-15.32L303.12.52c-2.73-.72-5.6-.69-8.31.08l-63.32,17.96c-6.81,1.93-11.49,8.16-11.47,15.23l.08,24.29h-.12v67.69h-27.72c-28.31,0-51.25,22.95-51.25,51.25v106.69L16.92,561.7C5.76,586.68,0,613.74,0,641.09v206.35C0,885.02,30.46,915.48,68.04,915.48h461.84c37.58,0,68.04-30.46,68.04-68.04v-206.35c0-27.36-5.76-54.41-16.92-79.39Zm-17.46,217.05h-173.41c-20.41,28.27-53.64,46.68-91.17,46.68s-70.76-18.41-91.17-46.68H33.32v-131.39h174.47c20.41-28.27,53.64-46.68,91.17-46.68s70.76,18.41,91.17,46.68h173.41v131.39Z"/>
  <path class="cls-1" d="m298.96,639.28l-48.82,79.67c-18.2,29.71,3.17,67.88,38.01,67.88h21.61c34.84,0,56.22-38.17,38.01-67.88l-48.82-79.67Z"/>
</svg>