<?xml version="1.0" encoding="UTF-8"?>
<svg id="Layer_1" data-name="Layer 1" xmlns="http://www.w3.org/2000/svg" viewBox="0 0 850 629.52">
  <defs>
    <style>
      .cls-1 {
        stroke-width: 0px;
      }
    </style>
  </defs>
  <circle class="cls-1" cx="392.85" cy="209" r="17"/>
  <path class="cls-1" d="m533.03,292.41c-58.56-62.28-157.5-62.28-216.06,0L0,629.52h850l-316.97-337.11Zm-254.03,196.2c-9.39,0-17-7.61-17-17s7.61-17,17-17,17,7.61,17,17-7.61,17-17,17Zm17-68.09c-9.39,0-17-7.61-17-17s7.61-17,17-17,17,7.61,17,17-7.61,17-17,17Zm96.85-121.52c9.39,0,17,7.61,17,17s-7.61,17-17,17-17-7.61-17-17,7.61-17,17-17Zm-51,172.61c-9.39,0-17-7.61-17-17s7.61-17,17-17,17,7.61,17,17-7.61,17-17,17Zm34-68.09c-9.39,0-17-7.61-17-17s7.61-17,17-17,17,7.61,17,17-7.61,17-17,17Zm34,102.09c-9.39,0-17-7.61-17-17s7.61-17,17-17,17,7.61,17,17-7.61,17-17,17Zm49.15-51c-9.39,0-17-7.61-17-17s7.61-17,17-17,17,7.61,17,17-7.61,17-17,17Zm0-104.61c-9.39,0-17-7.61-17-17s7.61-17,17-17,17,7.61,17,17-7.61,17-17,17Zm70.85,70.52c-9.39,0-17-7.61-17-17s7.61-17,17-17,17,7.61,17,17-7.61,17-17,17Z"/>
  <circle class="cls-1" cx="442" cy="175" r="17"/>
  <circle class="cls-1" cx="392.85" cy="125" r="17"/>
  <circle class="cls-1" cx="425" cy="65" r="17"/>
  <circle class="cls-1" cx="451" cy="17" r="17"/>
  <circle class="cls-1" cx="392.85" cy="17" r="17"/>
</svg>