<?xml version="1.0" encoding="UTF-8"?>
<svg id="Layer_1" data-name="Layer 1" xmlns="http://www.w3.org/2000/svg" viewBox="0 0 846.43 846.42">
  <defs>
    <style>
      .cls-1 {
        stroke-width: 0px;
      }

      .cls-2 {
        fill: none;
        stroke: #000;
        stroke-linecap: round;
        stroke-linejoin: bevel;
        stroke-width: 12px;
      }
    </style>
  </defs>
  <line class="cls-2" x1="156.7" y1="689.72" x2="6" y2="840.42"/>
  <path class="cls-1" d="m840.48,205.09L641.34,5.94c-7.93-7.93-20.78-7.93-28.71,0-7.93,7.93-7.93,20.78,0,28.71l87.91,87.91-98.67,98.67-119.31-119.31c-7.93-7.93-20.78-7.93-28.7,0h0c-7.93,7.93-7.93,20.78,0,28.71l42.16,42.16-351.92,351.92c-19.3,19.3-19.3,50.59,0,69.89l20.67,20.67-25.87,25.87c-8.5,8.5-8.5,22.29,0,30.79l35.59,35.59c8.5,8.5,22.29,8.5,30.79,0l25.87-25.87,20.67,20.67c19.3,19.3,50.59,19.3,69.89,0l351.92-351.92,42.16,42.16c7.93,7.93,20.78,7.93,28.71,0s7.93-20.78,0-28.71l-119.31-119.31,98.67-98.67,87.91,87.91c7.93,7.93,20.78,7.93,28.7,0h0c7.93-7.93,7.93-20.78,0-28.71ZM251.3,588.92c-2.34,2.34-6.14,2.34-8.49,0l-61.87-61.87c-2.34-2.34-2.34-6.14,0-8.49h0c2.34-2.34,6.14-2.34,8.49,0l61.87,61.87c2.34,2.34,2.34,6.14,0,8.49Zm47.54-47.54h0c-2.34,2.34-6.14,2.34-8.49,0l-61.87-61.87c-2.34-2.34-2.34-6.14,0-8.49,2.34-2.34,6.14-2.34,8.49,0l61.87,61.87c2.34,2.34,2.34,6.14,0,8.49Zm47.54-47.54c-2.34,2.34-6.14,2.34-8.49,0l-61.87-61.87c-2.34-2.34-2.34-6.14,0-8.49s6.14-2.34,8.49,0l61.87,61.87c2.34,2.34,2.34,6.14,0,8.49Zm47.54-47.54c-2.34,2.34-6.14,2.34-8.49,0l-61.87-61.87c-2.34-2.34-2.34-6.14,0-8.49s6.14-2.34,8.49,0l61.87,61.87c2.34,2.34,2.34,6.14,0,8.49Zm47.54-47.54c-2.34,2.34-6.14,2.34-8.49,0l-61.87-61.87c-2.34-2.34-2.34-6.14,0-8.49s6.14-2.34,8.49,0l61.87,61.87c2.34,2.34,2.34,6.14,0,8.49Zm47.54-47.54c-2.34,2.34-6.14,2.34-8.49,0l-61.87-61.87c-2.34-2.34-2.34-6.14,0-8.49s6.14-2.34,8.49,0l61.87,61.87c2.34,2.34,2.34,6.14,0,8.49Zm47.54-47.54c-2.34,2.34-6.14,2.34-8.49,0l-61.87-61.87c-2.34-2.34-2.34-6.14,0-8.49s6.14-2.34,8.49,0l61.87,61.87c2.34,2.34,2.34,6.14,0,8.49Z"/>
</svg>