<?xml version="1.0" encoding="UTF-8"?>
<svg xmlns="http://www.w3.org/2000/svg" viewBox="0 0 878.77 885.75">
  <defs>
    <style>
      .cls-1 {
        fill: #f57f17;
      }

      .cls-1, .cls-2 {
        stroke-width: 0px;
      }

      .cls-2 {
        fill: #38808d;
      }
    </style>
  </defs>
  <g id="Layer_2" data-name="Layer 2">
    <g>
      <path class="cls-2" d="m551.91,581.02H62.11c-34.3,0-62.11,27.81-62.11,62.11v179.79c0,34.3,27.81,62.1,62.11,62.1h489.8c17.14,0,32.68-6.95,43.9-18.19,11.24-11.23,18.19-26.76,18.19-43.91v-179.79c0-34.3-27.79-62.11-62.09-62.11Z"/>
      <path class="cls-1" d="m118.5,830.32c-19.77,0-35.78-16.03-35.78-35.8s16.01-35.79,35.78-35.79,35.8,16.02,35.8,35.79-16.02,35.8-35.8,35.8Z"/>
      <path class="cls-1" d="m118.5,707.32c-19.77,0-35.78-16.03-35.78-35.8s16.01-35.79,35.78-35.79,35.8,16.02,35.8,35.79-16.02,35.8-35.8,35.8Z"/>
      <path class="cls-1" d="m244.17,830.32c-19.76,0-35.8-16.03-35.8-35.8s16.04-35.79,35.8-35.79,35.8,16.02,35.8,35.79-16.03,35.8-35.8,35.8Z"/>
      <path class="cls-1" d="m244.17,707.32c-19.76,0-35.8-16.03-35.8-35.8,0-8.85,3.22-16.96,8.55-23.21,6.57-7.7,16.34-12.58,27.25-12.58s20.68,4.88,27.25,12.58c5.33,6.25,8.55,14.36,8.55,23.21,0,19.77-16.03,35.8-35.8,35.8Z"/>
      <path class="cls-1" d="m369.85,830.32c-19.77,0-35.81-16.03-35.81-35.8s16.04-35.79,35.81-35.79,35.78,16.02,35.78,35.79-16.02,35.8-35.78,35.8Z"/>
      <path class="cls-1" d="m369.85,707.32c-19.77,0-35.81-16.03-35.81-35.8,0-8.85,3.22-16.96,8.55-23.21,6.57-7.7,16.35-12.58,27.26-12.58s20.67,4.88,27.24,12.58c5.33,6.25,8.54,14.36,8.54,23.21,0,19.77-16.02,35.8-35.78,35.8Z"/>
      <path class="cls-1" d="m495.5,830.32c-19.77,0-35.78-16.03-35.78-35.8s16.01-35.79,35.78-35.79,35.8,16.02,35.8,35.79-16.02,35.8-35.8,35.8Z"/>
      <path class="cls-1" d="m495.5,707.32c-19.77,0-35.78-16.03-35.78-35.8,0-8.85,3.21-16.96,8.54-23.21,6.56-7.7,16.33-12.58,27.24-12.58s20.69,4.88,27.26,12.58c5.33,6.25,8.54,14.36,8.54,23.21,0,19.77-16.02,35.8-35.8,35.8Z"/>
    </g>
    <g>
      <path class="cls-1" d="m641.59,35.49v48.55c0,19.59-15.89,35.48-35.49,35.48h-294.36c-19.59,0-35.48-15.89-35.48-35.48v-48.55c0-19.6,15.89-35.49,35.48-35.49h294.36c19.6,0,35.49,15.89,35.49,35.49Z"/>
      <path class="cls-1" d="m717.13,382.68v265.63h-88.9v-13.23c0-37.36-30.26-67.65-67.63-67.65h-73.98v-35.15h65.4v-49.61h-65.4v-65.4h-49.61v65.4h-65.4v49.61h65.4v35.15h-236.3v-184.75c0-5.48.54-10.84,1.57-16.01.62-3.12,1.41-6.16,2.37-9.14h508.54c.96,2.98,1.76,6.02,2.37,9.14,1.03,5.17,1.57,10.53,1.57,16.01Z"/>
      <path class="cls-2" d="m713.19,357.52h0s-508.54,0-508.54,0h0c1.46-4.56,3.32-8.95,5.53-13.12,0,0,0-.02.02-.03t.02-.03c1.75-3.32,3.73-6.52,5.94-9.56l20.87-33.23,27.23-43.31,51.03-81.22h-.69v-57.51h288.65v57.51l51.47,82.36,27.46,43.92,21.05,33.69h0c1.6,2.38,3.06,4.82,4.39,7.35t.02.03s.02.02.02.03c2.21,4.17,4.07,8.56,5.53,13.11Z"/>
      <polygon class="cls-2" points="717.13 648.31 717.06 653.92 627.56 700.46 628.24 648.31 717.13 648.31"/>
    </g>
    <g>
      <path class="cls-1" d="m683.04,686.25l-.5.27-54.44,29.9-.65,107.92c-.11,18.24-9.45,33.97-20.99,47.13,25.24,17.13,60.5,19.3,88.24,4.06l71-38.99.49-.27,4.16-2.29-84.09-149.5-3.23,1.78Z"/>
      <path class="cls-2" d="m754.03,647.28l-37.76,20.74-30,16.48,84.09,149.5,66.35-36.44c26.79-14.72,41.88-42.66,42.05-71.99.09-14.45-3.45-29.23-10.98-42.92-22.84-41.5-73.76-57.34-113.75-35.38Z"/>
    </g>
  </g>
  <g id="Layer_3" data-name="Layer 3">
    <polyline class="cls-2" points="437.01 567.43 437.01 532.28 371.61 532.28 371.61 482.67 437.01 482.67 437.01 417.27 486.62 417.27 486.62 482.67 552.02 482.67 552.02 532.28 486.62 532.28 486.62 567.43"/>
  </g>
</svg>