<?xml version="1.0" encoding="UTF-8"?>
<svg xmlns="http://www.w3.org/2000/svg" viewBox="0 0 878.77 890.19">
  <defs>
    <style>
      .cls-1 {
        stroke: #ffa000;
        stroke-miterlimit: 10;
        stroke-width: 6px;
      }

      .cls-1, .cls-2 {
        fill: #fff;
      }

      .cls-2, .cls-3 {
        stroke-width: 0px;
      }

      .cls-3 {
        fill: #ffa000;
      }
    </style>
  </defs>
  <g id="Layer_2" data-name="Layer 2">
    <g>
      <path class="cls-3" d="m551.91,584.02H62.11c-34.3,0-62.11,27.81-62.11,62.11v179.79c0,34.3,27.81,62.1,62.11,62.1h489.8c17.14,0,32.68-6.95,43.9-18.19,11.24-11.23,18.19-26.76,18.19-43.91v-179.79c0-34.3-27.79-62.11-62.09-62.11Z"/>
      <path class="cls-2" d="m118.5,833.32c-19.77,0-35.78-16.03-35.78-35.8s16.01-35.79,35.78-35.79,35.8,16.02,35.8,35.79-16.02,35.8-35.8,35.8Z"/>
      <path class="cls-2" d="m118.5,710.32c-19.77,0-35.78-16.03-35.78-35.8s16.01-35.79,35.78-35.79,35.8,16.02,35.8,35.79-16.02,35.8-35.8,35.8Z"/>
      <path class="cls-2" d="m244.17,833.32c-19.76,0-35.8-16.03-35.8-35.8s16.04-35.79,35.8-35.79,35.8,16.02,35.8,35.79-16.03,35.8-35.8,35.8Z"/>
      <path class="cls-2" d="m244.17,710.32c-19.76,0-35.8-16.03-35.8-35.8,0-8.85,3.22-16.96,8.55-23.21,6.57-7.7,16.34-12.58,27.25-12.58s20.68,4.88,27.25,12.58c5.33,6.25,8.55,14.36,8.55,23.21,0,19.77-16.03,35.8-35.8,35.8Z"/>
      <path class="cls-2" d="m369.85,833.32c-19.77,0-35.81-16.03-35.81-35.8s16.04-35.79,35.81-35.79,35.78,16.02,35.78,35.79-16.02,35.8-35.78,35.8Z"/>
      <path class="cls-2" d="m369.85,710.32c-19.77,0-35.81-16.03-35.81-35.8,0-8.85,3.22-16.96,8.55-23.21,6.57-7.7,16.35-12.58,27.26-12.58s20.67,4.88,27.24,12.58c5.33,6.25,8.54,14.36,8.54,23.21,0,19.77-16.02,35.8-35.78,35.8Z"/>
      <path class="cls-2" d="m495.5,833.32c-19.77,0-35.78-16.03-35.78-35.8s16.01-35.79,35.78-35.79,35.8,16.02,35.8,35.79-16.02,35.8-35.8,35.8Z"/>
      <path class="cls-2" d="m495.5,710.32c-19.77,0-35.78-16.03-35.78-35.8,0-8.85,3.21-16.96,8.54-23.21,6.56-7.7,16.33-12.58,27.24-12.58s20.69,4.88,27.26,12.58c5.33,6.25,8.54,14.36,8.54,23.21,0,19.77-16.02,35.8-35.8,35.8Z"/>
    </g>
    <g>
      <path class="cls-1" d="m641.84,38.49v48.55c0,19.59-15.89,35.48-35.49,35.48h-294.36c-19.59,0-35.48-15.89-35.48-35.48v-48.55c0-19.6,15.89-35.49,35.48-35.49h294.36c19.6,0,35.49,15.89,35.49,35.49Z"/>
      <path class="cls-1" d="m715.21,388.22v263.09h-88.1v-13.1c0-37-29.99-67-67.02-67h-73.31v-34.81h64.81v-49.14h-64.81v-64.77h-49.16v64.77h-64.81v49.14h64.81v34.81h-234.16v-182.98c0-5.43.54-10.74,1.56-15.86.61-3.09,1.4-6.1,2.35-9.05h503.94c.95,2.95,1.74,5.96,2.35,9.05,1.02,5.12,1.56,10.43,1.56,15.86Z"/>
      <path class="cls-3" d="m713.44,360.52h0s-508.54,0-508.54,0h0c1.46-4.56,3.32-8.95,5.53-13.12,0,0,0-.02.02-.03t.02-.03c1.75-3.32,3.73-6.52,5.94-9.56l20.87-33.23,27.23-43.31,51.03-81.22h-.69v-57.51h288.65v57.51l51.47,82.36,27.46,43.92,21.05,33.69h0c1.6,2.38,3.06,4.82,4.39,7.35t.02.03s.02.02.02.03c2.21,4.17,4.07,8.56,5.53,13.11Z"/>
      <polygon class="cls-3" points="718.37 651.31 718.31 656.92 623.7 703.41 624.38 651.24 718.37 651.31"/>
    </g>
    <g>
      <path class="cls-1" d="m682.81,692.88l-.49.27-53.75,29.54s.31,78.61-1.67,104.72c-1.48,19.45-5.41,31.37-18.31,46.94,24.62,16.37,56.47,17.14,83.86,2.09l70.1-38.52.48-.27,4.11-2.26-81.14-144.25-3.19,1.75Z"/>
      <path class="cls-3" d="m754.03,650.28l-37.76,20.74-30,16.48,84.09,149.5,66.35-36.44c26.79-14.72,41.88-42.66,42.05-71.99.09-14.45-3.45-29.23-10.98-42.92-22.84-41.5-73.76-57.34-113.75-35.38Z"/>
    </g>
  </g>
  <g id="Layer_3" data-name="Layer 3">
    <polyline class="cls-3" points="437.51 573.52 437.51 537.65 372.11 537.65 372.11 487.02 437.51 487.02 437.51 420.27 487.12 420.27 487.12 487.02 552.52 487.02 552.52 537.65 487.12 537.65 487.12 573.52"/>
  </g>
</svg>