<?xml version="1.0" encoding="UTF-8"?>
<svg id="Layer_2" data-name="Layer 2" xmlns="http://www.w3.org/2000/svg" viewBox="0 0 1024 1024">
  <defs>
    <style>
      .cls-1, .cls-2, .cls-3 {
        stroke-width: 8px;
      }

      .cls-1, .cls-3 {
        stroke: #009aab;
        stroke-miterlimit: 10;
      }

      .cls-1, .cls-4 {
        fill: #fff;
      }

      .cls-2 {
        stroke: #ffa000;
        stroke-linecap: round;
        stroke-linejoin: round;
      }

      .cls-2, .cls-3 {
        fill: none;
      }

      .cls-5 {
        fill: #009aab;
      }

      .cls-5, .cls-4, .cls-6 {
        stroke-width: 0px;
      }

      .cls-6 {
        fill: #ffa000;
      }
    </style>
  </defs>
  <g>
    <path class="cls-5" d="m127.75,960.63h736.49l103.76-103.77v-482.91H56v514.93c0,39.63,32.13,71.75,71.75,71.75Z"/>
    <path class="cls-6" d="m968,208.38c0-39.63-32.12-71.75-71.75-71.75H127.75c-39.62,0-71.75,32.12-71.75,71.75v165.57h912v-165.57Z"/>
  </g>
  <g>
    <g>
      <line class="cls-2" x1="738.19" y1="468.28" x2="759.46" y2="492.02"/>
      <line class="cls-2" x1="793.9" y1="453.02" x2="759.25" y2="491.78"/>
    </g>
    <g>
      <line class="cls-2" x1="566.95" y1="468.28" x2="588.23" y2="492.02"/>
      <line class="cls-2" x1="622.67" y1="453.02" x2="588.01" y2="491.78"/>
    </g>
    <g>
      <line class="cls-2" x1="395.71" y1="468.28" x2="416.99" y2="492.02"/>
      <line class="cls-2" x1="451.43" y1="453.02" x2="416.77" y2="491.78"/>
    </g>
    <g>
      <line class="cls-2" x1="224.48" y1="468.28" x2="245.75" y2="492.02"/>
      <line class="cls-2" x1="280.19" y1="453.02" x2="245.54" y2="491.78"/>
    </g>
    <g>
      <line class="cls-2" x1="397.9" y1="596.44" x2="419.18" y2="620.18"/>
      <line class="cls-2" x1="453.62" y1="581.18" x2="418.96" y2="619.94"/>
    </g>
    <g>
      <line class="cls-2" x1="226.91" y1="600.11" x2="248.19" y2="623.85"/>
      <line class="cls-2" x1="282.63" y1="584.85" x2="247.98" y2="623.61"/>
    </g>
  </g>
  <g>
    <rect class="cls-4" x="568.89" y="577.52" width="56.46" height="50" rx="15.52" ry="15.52"/>
    <rect class="cls-4" x="740.62" y="577.52" width="56.46" height="50" rx="15.52" ry="15.52"/>
    <rect class="cls-4" x="566.64" y="714.68" width="56.46" height="50" rx="15.52" ry="15.52"/>
    <rect class="cls-4" x="395.28" y="713.02" width="56.46" height="50" rx="15.52" ry="15.52"/>
    <rect class="cls-4" x="223.92" y="713.85" width="56.46" height="50" rx="15.52" ry="15.52"/>
    <rect class="cls-4" x="738" y="715.52" width="56.46" height="50" rx="15.52" ry="15.52"/>
    <rect class="cls-4" x="566.64" y="853.52" width="56.46" height="50" rx="15.52" ry="15.52"/>
    <rect class="cls-4" x="395.28" y="851.85" width="56.46" height="50" rx="15.52" ry="15.52"/>
    <rect class="cls-4" x="223.92" y="852.68" width="56.46" height="50" rx="15.52" ry="15.52"/>
    <rect class="cls-4" x="738" y="854.35" width="56.46" height="50" rx="15.52" ry="15.52"/>
  </g>
  <path class="cls-1" d="m962.52,854.59l-99.74,101.8c-.39.4-1.03.1-1.03-.47l-.03-78.84c-.3-13.55,10.4-24.66,23.6-24.51l76.79.9c.55,0,.81.72.42,1.12Z"/>
  <rect class="cls-4" x="369" y="274.53" width="286" height="52" rx="19.91" ry="19.91"/>
  <path class="cls-3" d="m298.97,136.64v-42.31c0-17.1-13.86-30.96-30.96-30.96h-15.09c-17.09,0-30.95,13.86-30.95,30.96v83.08c0,17.1,13.86,30.96,30.95,30.96h7.55"/>
  <path class="cls-3" d="m550.5,137.41v-41.54c0-17.1-13.86-30.96-30.96-30.96h-15.08c-17.1,0-30.96,13.86-30.96,30.96v83.08c0,17.1,13.86,30.96,30.96,30.96h7.54"/>
  <path class="cls-3" d="m802.03,137.41v-43.08c0-17.1-13.86-30.96-30.95-30.96h-15.09c-17.1,0-30.96,13.86-30.96,30.96v83.08c0,17.1,13.86,30.96,30.96,30.96h7.54"/>
</svg>