<?xml version="1.0" encoding="UTF-8"?>
<svg id="Layer_1" data-name="Layer 1" xmlns="http://www.w3.org/2000/svg" viewBox="0 0 618 802.92">
  <defs>
    <style>
      .cls-1 {
        stroke-width: 0px;
      }
    </style>
  </defs>
  <path class="cls-1" d="m61.72,761.77L1.17,435.28c-6.27-33.82,13.44-66.36,40.2-66.36h535.27c26.84,0,46.56,32.73,40.15,66.61l-61.83,326.49c-4.55,24.02-21.12,40.91-40.15,40.91H101.92c-19.1,0-35.72-17.01-40.2-41.16Z"/>
  <rect class="cls-1" x="35" y="283.74" width="548" height="71.18"/>
  <path class="cls-1" d="m251.64,42.74C269.9,4.38,316.91,1.75,289.33.04c-10.23-.64-49.79,6.43-69.1,23.67-16.95,15.13-36.18,39.72-38.64,65.58-1.67,17.54,5.27,28.47-1.2,42.87-7.25,16.16-31.06,40.72-34.75,44.91-21.04,23.94-7.4,90.66-7.4,90.66l345.8,2s2.2-49.66-19.4-75.66c-21.43-25.8-87.85-43.49-150.69-67.55-24.38-9.33-81.01-44.49-62.31-83.79Z"/>
</svg>