<?xml version="1.0" encoding="UTF-8"?>
<svg id="Layer_1" data-name="Layer 1" xmlns="http://www.w3.org/2000/svg" viewBox="0 0 478.56 799.22">
  <defs>
    <style>
      .cls-1 {
        stroke-width: 0px;
      }
    </style>
  </defs>
  <path class="cls-1" d="m65.52,70.64C109.2,23.55,169.17,0,245.45,0c70.53,0,127.02,20.14,169.45,60.42s63.66,91.77,63.66,154.42c0,37.97-7.8,68.77-23.38,92.39s-47,58.36-94.25,104.19c-34.38,33.31-56.67,61.5-66.88,84.59-10.22,23.09-15.31,57.2-15.31,102.33h-95.61c0-51.2,6.08-92.47,18.27-123.81,12.17-31.33,38.84-67.22,80.03-107.69l42.97-42.44c12.89-12.16,23.28-24.88,31.16-38.12,14.31-23.28,21.48-47.45,21.48-72.52,0-35.09-10.48-65.53-31.42-91.31-20.95-25.78-55.59-38.67-103.94-38.67-59.8,0-101.16,22.2-124.06,66.61-12.91,24.72-20.25,60.34-22.03,106.89H0C0,179.94,21.83,117.73,65.52,70.64Zm115.48,616.86h106.89v111.72h-106.89v-111.72Z"/>
</svg>