<?xml version="1.0" encoding="UTF-8"?>
<svg id="Layer_1" data-name="Layer 1" xmlns="http://www.w3.org/2000/svg" viewBox="0 0 987.77 987.55">
  <defs>
    <style>
      .cls-1 {
        stroke-linecap: round;
      }

      .cls-1, .cls-2 {
        fill: none;
        stroke: #ffa000;
        stroke-miterlimit: 10;
        stroke-width: 12px;
      }

      .cls-3 {
        fill: #009aab;
      }

      .cls-3, .cls-4, .cls-5 {
        stroke-width: 0px;
      }

      .cls-4 {
        fill: #fff;
      }

      .cls-5 {
        fill: #ffa000;
      }

      .cls-2 {
        stroke-dasharray: 0 0 0 0 0 0 12 15 12 15 12 15;
      }
    </style>
  </defs>
  <g>
    <path class="cls-3" d="m602.32,30.04L30.06,602.3c-40.07,40.07-40.07,105.06,0,145.13l210.06,210.06c40.07,40.07,105.05,40.06,145.12-.01L957.5,385.22c20.03-20.03,30.06-46.3,30.04-72.54.01-26.25-10.01-52.52-30.05-72.55L747.43,30.07c-40.07-40.07-105.04-40.1-145.11-.02Z"/>
    <path class="cls-2" d="m551.56,661.18c-18.71,18.71-49.04,18.69-67.76-.02-18.71-18.71-18.72-49.03,0-67.75,18.72-18.72,49.05-18.72,67.77,0,18.71,18.71,18.72,49.05,0,67.77Z"/>
    <path class="cls-2" d="m394.12,503.74c-18.71,18.71-49.04,18.69-67.76-.02-18.71-18.71-18.72-49.03,0-67.75,18.72-18.72,49.05-18.72,67.77,0,18.71,18.71,18.72,49.05,0,67.77Z"/>
    <path class="cls-2" d="m666.78,545.96c-18.7,18.7-49.06,18.71-67.77,0-18.71-18.71-18.69-49.06,0-67.77,18.71-18.71,49.05-18.72,67.77,0,18.71,18.71,18.71,49.06,0,67.77Z"/>
    <path class="cls-2" d="m509.34,388.52c-18.7,18.7-49.06,18.71-67.77,0-8.38-8.38-13.01-19.1-13.88-30.06-1.07-13.51,3.56-27.38,13.89-37.7,10.33-10.33,24.19-14.96,37.7-13.89,10.96.87,21.69,5.5,30.06,13.88,18.71,18.71,18.71,49.06,0,67.77Z"/>
    <path class="cls-5" d="m321.14,891.61c-18.71,18.71-49.04,18.69-67.76-.02-18.71-18.71-18.72-49.03,0-67.75,18.72-18.72,49.05-18.72,67.77,0,18.71,18.71,18.72,49.05,0,67.77Z"/>
    <path class="cls-5" d="m163.7,734.17c-18.71,18.71-49.04,18.69-67.76-.02-18.71-18.71-18.72-49.03,0-67.75,18.72-18.72,49.05-18.72,67.77,0,18.71,18.71,18.72,49.05,0,67.77Z"/>
    <path class="cls-5" d="m436.36,776.39c-18.7,18.7-49.06,18.71-67.77,0-18.71-18.71-18.69-49.06,0-67.77,18.71-18.71,49.05-18.72,67.77,0,18.71,18.71,18.71,49.06,0,67.77Z"/>
    <path class="cls-2" d="m278.92,618.95c-18.7,18.7-49.06,18.71-67.77,0-8.38-8.38-13.01-19.1-13.88-30.06-1.07-13.51,3.56-27.38,13.89-37.7,10.33-10.33,24.19-14.96,37.7-13.89,10.96.87,21.69,5.5,30.06,13.88,18.71,18.71,18.71,49.06,0,67.77Z"/>
    <path class="cls-2" d="m782.02,430.73c-18.71,18.71-49.07,18.72-67.78,0-18.71-18.71-18.69-49.06.02-67.77,18.7-18.7,49.03-18.7,67.75,0,18.71,18.71,18.72,49.05.02,67.76Z"/>
    <path class="cls-2" d="m624.58,273.29c-18.71,18.71-49.07,18.72-67.78,0-8.38-8.38-13.01-19.1-13.88-30.06-1.07-13.51,3.57-27.38,13.9-37.71,10.33-10.33,24.18-14.95,37.69-13.88,10.96.87,21.68,5.51,30.05,13.89,18.71,18.71,18.72,49.05.02,67.76Z"/>
    <path class="cls-2" d="m897.2,315.55c-18.71,18.71-49.04,18.69-67.76-.02-18.71-18.71-18.72-49.03,0-67.75,18.72-18.72,49.05-18.72,67.77,0,18.71,18.71,18.72,49.05,0,67.77Z"/>
    <path class="cls-2" d="m739.76,158.11c-18.71,18.71-49.04,18.69-67.76-.02-8.38-8.38-13.02-19.09-13.89-30.05-1.08-13.5,3.55-27.37,13.88-37.69,10.34-10.34,24.2-14.97,37.71-13.9,10.96.87,21.68,5.51,30.05,13.89,18.71,18.71,18.72,49.05,0,67.77Z"/>
  </g>
  <line class="cls-1" x1="786.15" y1="201.39" x2="207" y2="780.54"/>
  <g>
    <path class="cls-5" d="m763.71,506.73l-175.67,304.27c-9.97,17.27,2.49,38.86,22.44,38.86h351.34c19.94,0,32.41-21.59,22.44-38.86l-175.67-304.27c-9.97-17.27-34.9-17.27-44.88,0Z"/>
    <circle class="cls-4" cx="786.15" cy="782.21" r="25.48"/>
    <rect class="cls-4" x="760.67" y="568" width="52.06" height="177" rx="26.03" ry="26.03"/>
  </g>
</svg>