<?xml version="1.0" encoding="UTF-8"?>
<svg id="Layer_1" data-name="Layer 1" xmlns="http://www.w3.org/2000/svg" viewBox="0 0 805 805">
  <defs>
    <style>
      .cls-1 {
        stroke-width: 0px;
      }
    </style>
  </defs>
  <path class="cls-1" d="m763.11,87.11l-45.22-45.22c-55.85-55.85-146.41-55.85-202.26,0L41.89,515.62c-55.85,55.85-55.85,146.41,0,202.26l45.22,45.22c55.85,55.85,146.41,55.85,202.26,0l473.73-473.73c55.85-55.85,55.85-146.41,0-202.26Zm-452.14,223.86c11.72-11.72,30.71-11.72,42.43,0,11.72,11.72,11.72,30.71,0,42.43-11.72,11.72-30.71,11.72-42.43,0s-11.72-30.71,0-42.43Zm-18.55,158.82c11.72-11.72,30.71-11.72,42.43,0,11.72,11.72,11.72,30.71,0,42.43s-30.71,11.72-42.43,0-11.72-30.71,0-42.43Zm-70.14-70.14c11.72-11.72,30.71-11.72,42.43,0,11.72,11.72,11.72,30.71,0,42.43-11.72,11.72-30.71,11.72-42.43,0s-11.72-30.71,0-42.43Zm125,262.19l-203.81-203.81,21.21-21.21,203.81,203.81-21.21,21.21Zm57.7-79.49c-11.72,11.72-30.71,11.72-42.43,0s-11.72-30.71,0-42.43,30.71-11.72,42.43,0c11.72,11.72,11.72,30.71,0,42.43Zm18.55-158.82c-11.72,11.72-30.71,11.72-42.43,0s-11.72-30.71,0-42.43c11.72-11.72,30.71-11.72,42.43,0,11.72,11.72,11.72,30.71,0,42.43Zm-23.88-158.82c-11.72-11.72-11.72-30.71,0-42.43s30.71-11.72,42.43,0c11.72,11.72,11.72,30.71,0,42.43-11.72,11.72-30.71,11.72-42.43,0Zm94.02,228.96c-11.72,11.72-30.71,11.72-42.43,0s-11.72-30.71,0-42.43,30.71-11.72,42.43,0c11.72,11.72,11.72,30.71,0,42.43Zm18.55-158.82c-11.72,11.72-30.71,11.72-42.43,0s-11.72-30.71,0-42.43c11.72-11.72,30.71-11.72,42.43,0,11.72,11.72,11.72,30.71,0,42.43Zm70.14,70.14c-11.72,11.72-30.71,11.72-42.43,0s-11.72-30.71,0-42.43,30.71-11.72,42.43,0c11.72,11.72,11.72,30.71,0,42.43Zm57.6-36.46l-203.81-203.81,21.21-21.21,203.81,203.81-21.21,21.21Z"/>
</svg>