<?xml version="1.0" encoding="UTF-8"?>
<svg id="Layer_1" data-name="Layer 1" xmlns="http://www.w3.org/2000/svg" viewBox="0 0 917.1 548.52">
  <defs>
    <style>
      .cls-1 {
        stroke: #000;
        stroke-miterlimit: 10;
      }
    </style>
  </defs>
  <circle class="cls-1" cx="163.22" cy="115.1" r="30.72"/>
  <path class="cls-1" d="m794.45,374.72c-14.04,0-27.54,2.37-40.1,6.74-43.81-95.77-140.46-162.29-252.66-162.29-103.11,0-193.1,56.2-241,139.64-6.81-3.07-14.36-4.77-22.32-4.77-17.54,0-33.13,8.3-43.07,21.19-17.93-8.78-38.1-13.72-59.42-13.72C61.11,361.5.5,422.11.5,496.87c0,18.1,3.55,35.37,10.01,51.14h894.9c7.2-15.56,11.2-32.88,11.2-51.14,0-67.47-54.69-122.16-122.16-122.16Zm-273.59-104.85c51.52,0,157.37,63.8,179.6,119.72l-179.6-119.72Z"/>
  <path class="cls-1" d="m652.77.5c-46.33,0-83.88,37.55-83.88,83.88s37.55,83.88,83.88,83.88,83.88-37.55,83.88-83.88S699.09.5,652.77.5Zm-2.95,33.08c37.33,0,60.08,17.27,60.08,57.04l-60.08-57.04Z"/>
  <path class="cls-1" d="m213.52,192.76c-27.78,0-50.3,22.52-50.3,50.3s22.52,50.3,50.3,50.3,50.3-22.52,50.3-50.3-22.52-50.3-50.3-50.3Zm-8.34,20.22c22.89,0,36.84,10.59,36.84,34.97l-36.84-34.97Z"/>
  <path class="cls-1" d="m841.41,194.33c-26.92,0-48.74,21.82-48.74,48.74s21.82,48.74,48.74,48.74,48.74-21.82,48.74-48.74-21.82-48.74-48.74-48.74Zm-7.46,18.34c23.3,0,37.5,10.78,37.5,35.6l-37.5-35.6Z"/>
</svg>